<svg xmlns="http://www.w3.org/2000/svg" viewBox="0 0 1670.5 1690.2"><g id="Livello_2" data-name="Livello 2"><g id="Capa_2" data-name="Capa 2"><path d="M1379.8,738c-18.5-64.7-42.4-127.2-69.4-188.2a282.6,282.6,0,0,1-64.2,82.8c-38.6,33.9-86.3,56.2-136.8,65.7-58.1,10.9-118.5,5.1-175-11.5-69-20.2-127.2-65.6-195.9-86.6-18.4-5.6-37.4-10.5-56.6-12.4a228.4,228.4,0,0,0-54.8,1.8c-37.2,5.3-72.9,17.7-109.2,26.6-16.5,4.1-33.1,7.7-50.1,8.4a169.2,169.2,0,0,1-121.2-44.4,164.6,164.6,0,0,1-46-71.8c-9.3-29.5-9.3-61-1.9-90.9,14.2-57.1,53.8-103,97.5-140.4,20.5-17.4,42.1-33.4,64-49C412.7,175.3,335.6,115.2,310.7,96.3V251.8a5,5,0,1,1-9.9,0V86.3a4.9,4.9,0,0,1,2.7-4.5,5.1,5.1,0,0,1,5.2.4c1,.8,102.2,75.8,159.6,140a.1.1,0,0,0,.1.1l32.1-22.5c-20-19.7-48.5-48.1-64.4-65.2C394.5,89.8,323.4,28.5,282.8,44s-33.6,197.5-23.3,255.3C91.9,477.4-19,740.7,2.7,991c5.6,64,18.4,127.9,39.4,188.2,9.1-30.4,21.8-59.7,36.5-87.3A584.5,584.5,0,0,1,215,922.7c24.8-21.1,51.8-40.1,80.9-54.9s58.1-27.6,90.2-27.5A88.4,88.4,0,0,1,448,865.5c18.5,17.9,29.9,42.1,38.2,66.1a368.8,368.8,0,0,1,12.1,43.8c3.8,17.4,7.2,34.9,13.5,51.7,8.3,22.5,21.3,43.9,42.6,56.1,17.5,10,37.8,12.7,57.5,14.8,8.9.9,17.9,1.8,26.7,3-5-13.5-10.2-26.9-15.3-40.1-12.1-30.9-24.5-62.9-33.7-95.7a5,5,0,0,1,3.5-6.1,4.9,4.9,0,0,1,6.1,3.4c9,32.4,21.4,64.1,33.4,94.8,5.8,14.9,11.7,30,17.3,45.4a179.9,179.9,0,0,1,28.9,7.3,146.3,146.3,0,0,1,50.5,30.5c8.7-28.5,19.5-56.2,30.1-83.2,11.9-30.7,24.3-62.4,33.4-94.8a4.9,4.9,0,0,1,6.1-3.4,5,5,0,0,1,3.5,6.1c-9.2,32.8-21.7,64.8-33.7,95.7-11.1,28.4-22.5,57.6-31.3,87.4,27.5,28.6,45.6,67,55.9,105.2,9,33.6,12.8,68.5,13.1,103.2a477.4,477.4,0,0,1-6.2,83.6,448.5,448.5,0,0,1-32.7,108,371.7,371.7,0,0,0,16.4,45,936,936,0,0,0,126.7-14.7c6.4-21.7,16.1-47.6,27.4-77.6,41.6-110.7,104.4-278,104.4-502.7a5,5,0,0,1,5-5,5,5,0,0,1,5,5c0,226.5-63.2,394.8-105.1,506.2-10.3,27.6-19.4,51.7-25.6,71.9q28.5-5.7,56.2-13.2l9.6-2.7a733.5,733.5,0,0,0,121.7-46.3c4.4-2.2,8.8-4.3,13.1-6.6,48.2-24.8,92.4-55.2,130.9-91.1l7.6-7.2a491.1,491.1,0,0,0,76.1-94.6l5.3-8.8a475.4,475.4,0,0,0,34.1-71.1C1436.1,1078.3,1425.9,899.6,1379.8,738Z" style="fill:#D49635"/><path d="M463.4,1555.6c-5.4-15.4-11.8-32.5-18.8-51.1-41.8-111.4-105.1-279.7-105.1-506.2a5,5,0,0,1,5-5,5,5,0,0,1,5,5c0,224.7,62.9,392,104.5,502.7,8,21.4,15.3,40.7,21.1,57.9A939.9,939.9,0,0,0,611,1586.4a388.9,388.9,0,0,0,25.4-92.3,5,5,0,0,1,9.9,1.5,403.9,403.9,0,0,1-25,92.1,1015.7,1015.7,0,0,0,122.2,6.7c2.7-4.4,5.2-8.8,7.6-13.1,3.5-6.4,6.9-12.9,10.1-19.5a408.1,408.1,0,0,1-15.6-66.2,5.1,5.1,0,0,1,4.3-5.7,5,5,0,0,1,5.6,4.2,385.5,385.5,0,0,0,12,54.2,448.5,448.5,0,0,0,32.7-108,477.4,477.4,0,0,0,6.2-83.6c-.3-34.7-4.1-69.6-13.1-103.2-10.3-38.2-28.4-76.6-55.9-105.2-1.4,4.8-2.7,9.5-4,14.3-24.4,92.6-20.2,193.1,11.7,282.8a5,5,0,0,1-3,6.4l-1.7.3a5,5,0,0,1-4.7-3.3c-32.6-91.7-36.8-194.2-11.9-288.8,1.7-6.5,3.6-13,5.5-19.5a146.3,146.3,0,0,0-50.5-30.5,179.9,179.9,0,0,0-28.9-7.3c6.8,18.8,13.2,37.9,18.3,57.3,24.9,94.6,20.7,197.1-11.9,288.8a5.2,5.2,0,0,1-4.7,3.3,5.1,5.1,0,0,1-1.7-.3,4.9,4.9,0,0,1-3-6.4c31.9-89.7,36-190.2,11.6-282.8-5.5-20.9-12.4-41.4-19.9-61.6-8.8-1.2-17.8-2.1-26.7-3-19.7-2.1-40-4.8-57.5-14.8-21.3-12.2-34.3-33.6-42.6-56.1-6.3-16.8-9.7-34.3-13.5-51.7a368.8,368.8,0,0,0-12.1-43.8c-8.3-24-19.7-48.2-38.2-66.1a88.4,88.4,0,0,0-61.9-25.2c-32.1-.1-62.1,13.2-90.2,27.5s-56.1,33.8-80.9,54.9A584.5,584.5,0,0,0,78.6,1091.9c-14.7,27.6-27.4,56.9-36.5,87.3.6,1.8,1.2,3.7,1.9,5.5s1.9,5.4,2.9,8.1,2,5.3,3.1,8c1.7,4.4,3.5,8.9,5.3,13.2.7,1.8,1.4,3.6,2.2,5.3a20.3,20.3,0,0,0,1.1,2.6c1.8,4.4,3.8,8.7,5.7,13l3.6,7.8,3.7,7.6c.4.9.8,1.7,1.3,2.6l2.5,5c3.4,6.8,7,13.4,10.7,20l2.7,4.9L96,1295c1,1.6,2,3.2,2.9,4.8,9.5,15.2,19.6,29.9,30.5,44.1l1.5,2,.3.3,1.3,1.7.6.7.9,1.2.8,1,.8,1,.7.8.9,1.2.7.8.9,1.1.8.9a3.9,3.9,0,0,0,.8,1l.7.9.9,1.1.7.8,1,1.1.7.9a3.9,3.9,0,0,1,.8,1l.9.9a3.9,3.9,0,0,0,.8,1l.8.9.9,1,.8.9.9,1,.8.9.8.9.9,1,.7.8,1,1.1.5.6,2.8,3h0a9.4,9.4,0,0,1,1,1l.8.8,1.3,1.4.3.4,1.3,1.3.5.5,1.2,1.3.5.6,1.2,1.2.6.6,1.3,1.2.4.5,1.3,1.3.5.5,1.3,1.3.4.4,1.4,1.4c.2.1.3.3.4.4l1.4,1.3.4.5,1.4,1.3.3.3,1.5,1.5.4.3,1.5,1.5h.1C255,1471,353.9,1523.2,463.4,1555.6Z" style="fill:#BD632F"/><path d="M467.9,229.2a5,5,0,0,1-7.1-.4l-.6-.7c-21.9,15.6-43.5,31.6-64,49-43.7,37.4-83.3,83.3-97.5,140.4-7.4,29.9-7.4,61.4,1.9,90.9a164.6,164.6,0,0,0,46,71.8,169.2,169.2,0,0,0,121.2,44.4c17-.7,33.6-4.3,50.1-8.4,36.3-8.9,72-21.3,109.2-26.6a228.4,228.4,0,0,1,54.8-1.8c19.2,1.9,38.2,6.8,56.6,12.4,68.7,21,126.9,66.4,195.9,86.6,56.5,16.6,116.9,22.4,175,11.5,50.5-9.5,98.2-31.8,136.8-65.7a282.6,282.6,0,0,0,64.2-82.8c-40.5-91.7-88.2-180.3-135.7-268.3L1075.9,98.6l-26.6-49.3-2.9-5.2-.5-.8a7.5,7.5,0,0,0-.7-1.2,10.9,10.9,0,0,0-.8-1.5,4.1,4.1,0,0,1-.7-1.1q-2.9-4.8-6-9.3a2.1,2.1,0,0,1-.4-.6,121.5,121.5,0,0,0-11.9-14.4,1.2,1.2,0,0,1-.5-.5l-.9-.9-.6-.5-.9-.8h-.1a3,3,0,0,1-.8-.8c-5.6-4.8-11.6-8.5-18-10.3h-.4A32.3,32.3,0,0,0,987.7.7c-6.8,1.5-12.9,5.2-18.3,9.8l-1.9,1.6-3.1,3-.5.4c-1.4,1.5-2.9,3-4.3,4.6l-.4.4-.8,1-1.6,1.8c-8,9.2-15.6,18.8-22.8,28.7-1.3,1.6-2.4,3.3-3.6,5-4.2,5.8-8.1,11.7-12,17.8L915.1,80l-3.2,5.2-3.1,5.3c-4.1,7.1-8.1,14.3-11.8,21.7a452.7,452.7,0,0,0-32.8,83.5,533.4,533.4,0,0,0-266.5,1.4l-7.5,2.1-.7.2c-14.6,4.3-34,10.9-48,15.9l-.7.2-1.9.7-.6.2-1.2.4-.6.2-7.5,2.7-2.6,1-.7.2-2.7,1h-.2a2.9,2.9,0,0,0-.8-.8l-.9-.9-.4-.5-.4-.3-.3-.3-1.6-1.6h0c-4-3.9-10.4-10.1-17.9-17.6h0l-32.1,22.5A5,5,0,0,1,467.9,229.2Z" style="fill:#BD632F"/><path d="M374.7,1602.7c-6.8,11.6-15.4,24.4-27.4,32-10,6.2-24.9,8.9-35.7,1-12.5-9.3-14.6-28.1-16.6-46.2l-.6-5.6c-2.6-21.7-14.1-52.5-28.8-91.4-4-10.7-8.3-22.1-12.7-34.2-4.8-3.2-9.5-6.5-14.2-9.9,6.1,17.1,12.1,33,17.6,47.6,14.4,38.3,25.7,68.5,28.2,89.1l.6,5.5c2.1,19.3,4.5,41.2,20.6,53.1a36.7,36.7,0,0,0,21.8,6.8,46.5,46.5,0,0,0,25-7.4c14-8.7,23.4-22.7,30.8-35.3a326.8,326.8,0,0,0,30.3-68.6l-9.4-3.4A317.9,317.9,0,0,1,374.7,1602.7Z" style="fill:#6B381B"/><path d="M1088.6,1583.9l-.6,5.6c-2,18.1-4.1,36.9-16.6,46.2-10.8,7.9-25.7,5.2-35.7-1-12.1-7.6-20.7-20.4-27.5-32a317.3,317.3,0,0,1-20.7-42.2l-9.6,2.7a322.4,322.4,0,0,0,21.7,44.6c7.5,12.6,16.9,26.6,30.8,35.3a47.1,47.1,0,0,0,25.1,7.4,36.7,36.7,0,0,0,21.8-6.8c16-11.9,18.5-33.8,20.6-53.1l.6-5.5c2.2-18.4,11.6-44.7,23.8-77.5-4.3,2.3-8.7,4.4-13.1,6.6C1098.6,1543,1090.7,1566.4,1088.6,1583.9Z" style="fill:#6B381B"/><path d="M1583.7,851.9c-41.7-17-71.5-4.9-89.1,8.3-36.6,27.4-51.8,80.3-47.9,118.4l14.2,138.8c3.6,35.5,7.3,72.3-.7,107.5-8.8,37.9-32.3,68.4-61.5,79.5-17.2,6.6-37,6.9-56.5,1.5l-5.3,8.8c22.4,6.7,45.4,6.6,65.3-1,32.8-12.5,58.1-44.9,67.7-86.6,8.4-36.8,4.6-74.4.9-110.7l-10-97.8a7.6,7.6,0,0,0,1.8-.9c8.7-6.8,15.1-16.3,21.3-25.4,8.3-12.2,16.1-23.7,28-27.2,16.3-5,31.1,7.1,46.8,20,13.8,11.2,28,22.8,45.1,24.8,13.4,1.6,27-4.3,37.3-16.1a53.8,53.8,0,0,0,10.2-17.4c24.3,114.2,1.1,288.4-73.1,370.1-80.6,88.7-219.3,115-317.4,62.8l-7.6,7.2c35.9,19.8,77.2,29.3,119.4,29.3,77.7,0,158.3-32.4,213-92.6,77.2-85,100.9-266.9,74.5-383.4C1645.9,907.3,1619.5,866.5,1583.7,851.9Zm49.9,135.4c-8,9.1-18.7,13.9-28.7,12.7-14.1-1.7-27.2-12.3-39.9-22.7-17-13.9-34.6-28.2-56-21.8-15.3,4.6-24.4,18.1-33.3,31.2-5,7.3-10,14.7-16,20.4l-3-29.5c-3.6-35.3,10.3-84.3,43.8-109.4,22.4-16.7,49.8-19.2,79.4-7.1,27.4,11.2,49.6,41.4,63.7,86a5,5,0,0,0-.2,3.2C1646.5,962.5,1642.8,976.6,1633.6,987.3Z" style="fill:#6B381B"/><path d="M761.2,1561.8c-3.2,6.6-6.6,13.1-10.1,19.5-2.4,4.3-4.9,8.7-7.6,13.1l29.7-.6C768.8,1583.3,764.8,1572.6,761.2,1561.8Z" style="fill:#D49635"/><path d="M646.3,1495.6a5,5,0,0,0-9.9-1.5,388.9,388.9,0,0,1-25.4,92.3h0a383.1,383.1,0,0,1-23.6,47.6c-8.3,14.1-18.7,29.7-33.5,38.9-12.3,7.7-30.8,11.1-44.2,1.2-15.4-11.5-18-34.3-20.4-56.4l-.8-6.7c-1.6-14.2-6.5-31.6-13.4-52h0c-5.8-17.2-13.1-36.5-21.1-57.9-41.6-110.7-104.5-278-104.5-502.7a5,5,0,0,0-5-5,5,5,0,0,0-5,5c0,226.5,63.3,394.8,105.1,506.2,7,18.6,13.4,35.7,18.8,51.1h0c7.9,22.7,13.5,41.7,15.2,56.5l.8,6.7c2.5,23.1,5.4,49.2,24.4,63.3a42.2,42.2,0,0,0,25.4,8.1,58.6,58.6,0,0,0,30-8.8c16.6-10.4,27.9-27.2,36.8-42.3a395.2,395.2,0,0,0,25.3-51.4h0A403.9,403.9,0,0,0,646.3,1495.6Z" style="fill:#6B381B"/><path d="M752,488.6a4.9,4.9,0,0,0-5.5,4.4,13.9,13.9,0,0,1-8.1,11.7,18.9,18.9,0,0,1-17.6-.9c-4.8-3.1-6.4-6.9-6.8-14.5.2-4.1.1-8.6,0-13.6,0-1,0-2.1-.1-3.2a.5.5,0,0,0,.4-.2c2.9-1.7,5.7-3.5,8.4-5.3,4.8-3.2,9.3-6.6,11.9-11s2.9-9.7-.8-13.5l-1.6-1.5c-3.1-2.2-7.4-3.5-11.6-4.3a70.4,70.4,0,0,0-22.9-.4c-5.2.8-10.3,2.2-14.1,5-13.8,10.5,7.7,25.6,20.3,31V477c-.1,4.4-.1,8.5.1,12.3-.4,7.8-2.1,11.3-7,14.5s-13.3,3.4-19.1.2a11.6,11.6,0,0,1-6.6-10.5,5,5,0,0,0-5-5,5.1,5.1,0,0,0-5,5c0,8.2,4.3,15.2,11.8,19.3a30.5,30.5,0,0,0,14.3,3.5,28,28,0,0,0,14.9-4.1,24.7,24.7,0,0,0,6.7-6,24.7,24.7,0,0,0,6.4,6,28.3,28.3,0,0,0,15,4.2,28.7,28.7,0,0,0,12.3-2.7A23.8,23.8,0,0,0,756.4,494,4.9,4.9,0,0,0,752,488.6Z" style="fill:#6B381B"/><path d="M582.8,389.6a5,5,0,0,0,6.3,3.2c29.3-9.6,63.1-4.3,88.2,13.8a5,5,0,0,0,2.9.9,5,5,0,0,0,2.9-9c-27.6-19.9-64.8-25.7-97.1-15.2A5,5,0,0,0,582.8,389.6Z" style="fill:#6B381B"/><path d="M742.6,398.5a5,5,0,0,0,2.9,9,5.3,5.3,0,0,0,3-.9c25-18.1,58.8-23.4,88.1-13.8a5,5,0,0,0,3.1-9.5C807.4,372.8,770.2,378.6,742.6,398.5Z" style="fill:#6B381B"/><path d="M788.1,444.8a5.1,5.1,0,0,0,4.9,3.7l1.3-.2a454.2,454.2,0,0,1,172.4-12.5,5,5,0,0,0,1.2-9.9,464.5,464.5,0,0,0-176.3,12.8A5,5,0,0,0,788.1,444.8Z" style="fill:#6B381B"/><path d="M954.2,468c-50.1-15.3-107.8-20.7-162.3-15.1a5,5,0,0,0,1,10c53.2-5.5,109.5-.3,158.4,14.7l1.4.2a5,5,0,0,0,1.5-9.8Z" style="fill:#6B381B"/><path d="M941.4,519.6C897.1,497.2,845.7,480,792.8,470a5,5,0,0,0-5.8,4,4.8,4.8,0,0,0,3.9,5.8c52.1,9.9,102.5,26.7,146,48.7a4.9,4.9,0,0,0,2.3.6,4.8,4.8,0,0,0,4.4-2.8A4.9,4.9,0,0,0,941.4,519.6Z" style="fill:#6B381B"/><path d="M449.9,425.9a5,5,0,0,0,1.2,9.9,450.6,450.6,0,0,1,171.7,12.5l1.3.2a5,5,0,0,0,1.3-9.8A460.4,460.4,0,0,0,449.9,425.9Z" style="fill:#6B381B"/><path d="M624.2,462.9a5,5,0,0,0,5.5-4.5,5.1,5.1,0,0,0-4.5-5.5c-54.3-5.6-111.8-.2-161.7,15.1a5.1,5.1,0,0,0-3.3,6.3,5.1,5.1,0,0,0,4.8,3.5l1.5-.2C515.1,462.6,571.1,457.4,624.2,462.9Z" style="fill:#6B381B"/><path d="M625,470c-52.8,10-104,27.2-148.1,49.6a5.1,5.1,0,0,0-2.2,6.8,5,5,0,0,0,4.5,2.7,4.6,4.6,0,0,0,2.2-.6c43.3-22,93.6-38.8,145.4-48.7A5,5,0,0,0,625,470Z" style="fill:#6B381B"/><path d="M467.9,229.2a5,5,0,0,0,.5-6.9.1.1,0,0,1-.1-.1C410.9,158,309.7,83,308.7,82.2a5.1,5.1,0,0,0-5.2-.4,4.9,4.9,0,0,0-2.7,4.5V251.8a5,5,0,1,0,9.9,0V96.3c24.9,18.9,102,79,149.5,131.8l.6.7A5,5,0,0,0,467.9,229.2Z" style="fill:#6B381B"/><path d="M922.2,186a5,5,0,0,0,6.5-2.8C957.6,109,984.2,65.6,994.2,50.4l107.6,173a5,5,0,0,0,6.8,1.6,4.9,4.9,0,0,0,1.6-6.9L998.6,38.7a4.9,4.9,0,0,0-4-2.4,5.2,5.2,0,0,0-4.2,2c-1.4,1.9-33.9,46.1-71,141.3A5,5,0,0,0,922.2,186Z" style="fill:#6B381B"/><path d="M712.9,657a4.8,4.8,0,0,0-7-.6c-48.3,40.7-76.7,105.3-74.2,168.4a5,5,0,0,0,4.9,4.8h.2a5,5,0,0,0,4.8-5.2c-2.3-60.1,24.8-121.6,70.7-160.4A4.9,4.9,0,0,0,712.9,657Z" style="fill:#6B381B"/><path d="M731.8,720.3a4.9,4.9,0,0,0-2.8-6.4,5,5,0,0,0-6.5,2.7c-20.5,51.1-19.3,111.6,3.3,161.9a4.9,4.9,0,0,0,4.5,2.9,5.2,5.2,0,0,0,2.1-.4,5.1,5.1,0,0,0,2.5-6.6C713.4,826.6,712.2,769,731.8,720.3Z" style="fill:#6B381B"/><path d="M646.9,1445.4a4.9,4.9,0,0,0,3,6.4,5.1,5.1,0,0,0,1.7.3,5.2,5.2,0,0,0,4.7-3.3c32.6-91.7,36.8-194.2,11.9-288.8-5.1-19.4-11.5-38.5-18.3-57.3-5.6-15.4-11.5-30.5-17.3-45.4-12-30.7-24.4-62.4-33.4-94.8a4.9,4.9,0,0,0-6.1-3.4,5,5,0,0,0-3.5,6.1c9.2,32.8,21.6,64.8,33.7,95.7,5.1,13.2,10.3,26.6,15.3,40.1,7.5,20.2,14.4,40.7,19.9,61.6C682.9,1255.2,678.8,1355.7,646.9,1445.4Z" style="fill:#6B381B"/><path d="M1052.4,998.3a5,5,0,0,0-5-5,5,5,0,0,0-5,5c0,224.7-62.8,392-104.4,502.7-11.3,30-21,55.9-27.4,77.6-3.6,12.2-6.1,23-7.2,32.4l-.7,6.7c-2.5,22.1-5,44.9-20.5,56.4-13.3,9.9-31.8,6.5-44.1-1.2-14.8-9.2-25.3-24.8-33.5-38.9a386.8,386.8,0,0,1-37.1-85.7,385.5,385.5,0,0,1-12-54.2,5,5,0,0,0-5.6-4.2,5.1,5.1,0,0,0-4.3,5.7,408.1,408.1,0,0,0,15.6,66.2c3.6,10.8,7.6,21.5,12,32a376.3,376.3,0,0,0,22.8,45.3c8.9,15.1,20.2,31.9,36.8,42.3a58.2,58.2,0,0,0,29.9,8.8,42.2,42.2,0,0,0,25.5-8.1c18.9-14.1,21.8-40.2,24.4-63.3l.7-6.7c1.2-10,4.2-22,8.4-35.7,6.2-20.2,15.3-44.3,25.6-71.9C989.2,1393.1,1052.4,1224.8,1052.4,998.3Z" style="fill:#6B381B"/><path d="M735.7,1448.8a5,5,0,0,0,4.7,3.3l1.7-.3a5,5,0,0,0,3-6.4c-31.9-89.7-36.1-190.2-11.7-282.8,1.3-4.8,2.6-9.5,4-14.3,8.8-29.8,20.2-59,31.3-87.4,12-30.9,24.5-62.9,33.7-95.7a5,5,0,0,0-3.5-6.1,4.9,4.9,0,0,0-6.1,3.4c-9.1,32.4-21.5,64.1-33.4,94.8-10.6,27-21.4,54.7-30.1,83.2-1.9,6.5-3.8,13-5.5,19.5C698.9,1254.6,703.1,1357.1,735.7,1448.8Z" style="fill:#6B381B"/></g></g></svg>